{
	"asset":{
		"generator":"Khronos glTF Blender I/O v5.1.18",
		"version":"2.0"
	},
	"scene":0,
	"scenes":[
		{
			"name":"Scene",
			"nodes":[
				22
			]
		}
	],
	"nodes":[
		{
			"name":"Foot.f.l",
			"rotation":[
				-0.23352602124214172,
				0.1878153681755066,
				-0.4800962805747986,
				0.8244383335113525
			],
			"scale":[
				0.9999999403953552,
				1,
				1
			],
			"translation":[
				-2.7939677238464355e-08,
				0.8646280765533447,
				2.0489096641540527e-08
			]
		},
		{
			"mesh":0,
			"name":"Cube.009",
			"rotation":[
				0.01956179551780224,
				0.004282679408788681,
				0.9997797012329102,
				0.00629433011636138
			],
			"scale":[
				1.9712988138198853,
				0.4682072103023529,
				1
			],
			"translation":[
				0.010304993018507957,
				0.4597919285297394,
				-0.023375149816274643
			]
		},
		{
			"children":[
				0,
				1
			],
			"name":"LowerLeg.f.l",
			"rotation":[
				0.0020142814610153437,
				-0.019867395982146263,
				0.01315604243427515,
				0.9997140169143677
			],
			"scale":[
				1,
				1.0000001192092896,
				1.0000001192092896
			],
			"translation":[
				-3.8155121728777885e-08,
				1.0001020431518555,
				2.703745849430561e-08
			]
		},
		{
			"mesh":1,
			"name":"Cube.008",
			"rotation":[
				0.0003504784544929862,
				-0.0023999223485589027,
				-0.9999738335609436,
				0.006814929656684399
			],
			"scale":[
				1.971299171447754,
				0.5367904305458069,
				1.000000238418579
			],
			"translation":[
				0.002933365060016513,
				0.4601023495197296,
				-0.011623386293649673
			]
		},
		{
			"children":[
				2,
				3
			],
			"name":"UpperLeg.f.l",
			"rotation":[
				0.0014253914123401046,
				0.001962322508916259,
				0.7108889818191528,
				0.7033001184463501
			],
			"scale":[
				1.0000001192092896,
				1.0000001192092896,
				1
			],
			"translation":[
				-0.01552655827254057,
				1.1973592042922974,
				0.5815190076828003
			]
		},
		{
			"name":"Foot.b.l",
			"rotation":[
				-0.23352593183517456,
				0.1878153383731842,
				-0.4800962209701538,
				0.8244383931159973
			],
			"scale":[
				0.9999998211860657,
				1,
				1
			],
			"translation":[
				-2.421438694000244e-08,
				0.8646281361579895,
				-8.195638656616211e-08
			]
		},
		{
			"mesh":2,
			"name":"Cube.001",
			"rotation":[
				0.019561776891350746,
				0.004282679874449968,
				0.9997797012329102,
				0.006294346880167723
			],
			"scale":[
				1.9712988138198853,
				0.46820715069770813,
				1
			],
			"translation":[
				0.0028540603816509247,
				0.46975278854370117,
				-0.013549667783081532
			]
		},
		{
			"children":[
				5,
				6
			],
			"name":"LowerLeg.b.l",
			"rotation":[
				0.002014281926676631,
				-0.019867362454533577,
				0.013156059198081493,
				0.9997140169143677
			],
			"scale":[
				1,
				1.0000001192092896,
				1.0000001192092896
			],
			"translation":[
				5.320180207490921e-08,
				1.000102162361145,
				4.42960299551487e-08
			]
		},
		{
			"mesh":3,
			"name":"Cube",
			"rotation":[
				0.00035046355333179235,
				-0.0023999223485589027,
				-0.9999738335609436,
				0.006814930588006973
			],
			"scale":[
				1.971299171447754,
				0.5367904305458069,
				1.000000238418579
			],
			"translation":[
				0.004622145090252161,
				0.4699297547340393,
				-0.0069743976928293705
			]
		},
		{
			"children":[
				7,
				8
			],
			"name":"UpperLeg.b.l",
			"rotation":[
				0.0014254020061343908,
				0.0019623117987066507,
				0.7108889818191528,
				0.7033001184463501
			],
			"scale":[
				1.0000001192092896,
				1.0000001192092896,
				1
			],
			"translation":[
				0.02586144581437111,
				-0.09963172674179077,
				0.5815190076828003
			]
		},
		{
			"name":"Foot.b.r",
			"rotation":[
				-0.23352590203285217,
				0.18781523406505585,
				-0.4800962805747986,
				0.8244383931159973
			],
			"scale":[
				0.9999998807907104,
				1,
				1
			],
			"translation":[
				-5.4016709327697754e-08,
				0.8646281957626343,
				-4.470348358154297e-08
			]
		},
		{
			"mesh":4,
			"name":"Cube.005",
			"rotation":[
				0.019561657682061195,
				0.004282679408788681,
				0.9997797012329102,
				0.006294346414506435
			],
			"scale":[
				1.9712986946105957,
				0.46820712089538574,
				1
			],
			"translation":[
				0.004987906664609909,
				0.47020581364631653,
				0.04088257998228073
			]
		},
		{
			"children":[
				10,
				11
			],
			"name":"LowerLeg.b.r",
			"rotation":[
				0.002014279831200838,
				-0.019867243245244026,
				0.013156058266758919,
				0.9997140169143677
			],
			"scale":[
				1,
				1.0000001192092896,
				1.0000001192092896
			],
			"translation":[
				6.461050361394882e-08,
				1.0001020431518555,
				-4.773028194904327e-09
			]
		},
		{
			"mesh":5,
			"name":"Cube.004",
			"rotation":[
				0.0003504635824356228,
				-0.0023999223485589027,
				-0.9999738335609436,
				0.006814930588006973
			],
			"scale":[
				1.971299171447754,
				0.5367904305458069,
				1.000000238418579
			],
			"translation":[
				0.004582319874316454,
				0.4701909124851227,
				0.04750092327594757
			]
		},
		{
			"children":[
				12,
				13
			],
			"name":"UpperLeg.b.r",
			"rotation":[
				0.0014254022389650345,
				0.0019623120315372944,
				0.7108889818191528,
				0.7033001184463501
			],
			"scale":[
				1.0000001192092896,
				1.0000001192092896,
				1
			],
			"translation":[
				0.02586144395172596,
				-0.09963168948888779,
				-0.6117643117904663
			]
		},
		{
			"name":"Foot.f.r",
			"rotation":[
				-0.23352579772472382,
				0.1878151297569275,
				-0.4800962507724762,
				0.8244385123252869
			],
			"scale":[
				0.9999998807907104,
				0.9999998807907104,
				0.9999999403953552
			],
			"translation":[
				1.6763806343078613e-08,
				0.8646280765533447,
				-1.1175870895385742e-08
			]
		},
		{
			"mesh":6,
			"name":"Cube.007",
			"rotation":[
				0.019561534747481346,
				0.004282678477466106,
				0.9997797012329102,
				0.006294323597103357
			],
			"scale":[
				1.9712984561920166,
				0.46820712089538574,
				0.9999998211860657
			],
			"translation":[
				0.02187614142894745,
				0.46999064087867737,
				0.04022239148616791
			]
		},
		{
			"children":[
				15,
				16
			],
			"name":"LowerLeg.f.r",
			"rotation":[
				0.0020142788998782635,
				-0.019867124035954475,
				0.013156073167920113,
				0.9997140169143677
			],
			"scale":[
				1,
				1.0000001192092896,
				1.0000001192092896
			],
			"translation":[
				3.41970007866621e-08,
				1.0001020431518555,
				3.16067598760128e-08
			]
		},
		{
			"mesh":7,
			"name":"Cube.006",
			"rotation":[
				0.00035046361153945327,
				-0.002399922115728259,
				-0.9999738335609436,
				0.006814967840909958
			],
			"scale":[
				1.971299171447754,
				0.5367904305458069,
				1.000000238418579
			],
			"translation":[
				0.021483203396201134,
				0.47042128443717957,
				0.04751225560903549
			]
		},
		{
			"children":[
				17,
				18
			],
			"name":"UpperLeg.f.r",
			"rotation":[
				0.001425401889719069,
				0.0019623120315372944,
				0.7108889818191528,
				0.7033001184463501
			],
			"scale":[
				1.0000001192092896,
				1.0000001192092896,
				1
			],
			"translation":[
				-0.005703963339328766,
				1.1957716941833496,
				-0.6117643117904663
			]
		},
		{
			"mesh":8,
			"name":"body",
			"rotation":[
				2.4825693500929447e-08,
				9.725634741997169e-10,
				-0.6984410881996155,
				0.7156675457954407
			],
			"scale":[
				0.9999999403953552,
				0.30000004172325134,
				0.5
			],
			"translation":[
				-0.00634709233418107,
				0.5192473530769348,
				1.236458047060296e-09
			]
		},
		{
			"children":[
				4,
				9,
				14,
				19,
				20
			],
			"name":"Body",
			"rotation":[
				-6.736385754768648e-11,
				-1.775715396945543e-08,
				0.999784529209137,
				0.020758289843797684
			],
			"scale":[
				0.9999999403953552,
				1.0000001192092896,
				1
			],
			"translation":[
				0.02075382135808468,
				0.8420868515968323,
				1.7098572557827652e-10
			]
		},
		{
			"children":[
				21
			],
			"name":"Armature",
			"rotation":[
				0.4957064688205719,
				-0.5042850971221924,
				-0.4956783652305603,
				0.5042566061019897
			],
			"translation":[
				0.007780224084854126,
				0,
				-0.24063189327716827
			]
		}
	],
	"materials":[
		{
			"doubleSided":true,
			"name":"Material",
			"pbrMetallicRoughness":{
				"baseColorFactor":[
					0.800000011920929,
					0.800000011920929,
					0.800000011920929,
					1
				],
				"metallicFactor":0,
				"roughnessFactor":0.5
			}
		}
	],
	"meshes":[
		{
			"name":"Cube.014",
			"primitives":[
				{
					"attributes":{
						"POSITION":0,
						"NORMAL":1,
						"TEXCOORD_0":2
					},
					"indices":3
				}
			]
		},
		{
			"name":"Cube.013",
			"primitives":[
				{
					"attributes":{
						"POSITION":4,
						"NORMAL":5,
						"TEXCOORD_0":6
					},
					"indices":3
				}
			]
		},
		{
			"name":"Cube.006",
			"primitives":[
				{
					"attributes":{
						"POSITION":7,
						"NORMAL":8,
						"TEXCOORD_0":9
					},
					"indices":3
				}
			]
		},
		{
			"name":"Cube.005",
			"primitives":[
				{
					"attributes":{
						"POSITION":10,
						"NORMAL":11,
						"TEXCOORD_0":12
					},
					"indices":3
				}
			]
		},
		{
			"name":"Cube.010",
			"primitives":[
				{
					"attributes":{
						"POSITION":13,
						"NORMAL":14,
						"TEXCOORD_0":15
					},
					"indices":3
				}
			]
		},
		{
			"name":"Cube.009",
			"primitives":[
				{
					"attributes":{
						"POSITION":16,
						"NORMAL":17,
						"TEXCOORD_0":18
					},
					"indices":3
				}
			]
		},
		{
			"name":"Cube.012",
			"primitives":[
				{
					"attributes":{
						"POSITION":19,
						"NORMAL":20,
						"TEXCOORD_0":21
					},
					"indices":3
				}
			]
		},
		{
			"name":"Cube.011",
			"primitives":[
				{
					"attributes":{
						"POSITION":22,
						"NORMAL":23,
						"TEXCOORD_0":24
					},
					"indices":3
				}
			]
		},
		{
			"name":"Cube",
			"primitives":[
				{
					"attributes":{
						"POSITION":25,
						"NORMAL":26,
						"TEXCOORD_0":27
					},
					"indices":28,
					"material":0
				}
			]
		}
	],
	"skins":[
		{
			"inverseBindMatrices":29,
			"joints":[
				21,
				4,
				2,
				0,
				9,
				7,
				5,
				14,
				12,
				10,
				19,
				17,
				15
			],
			"name":"Armature"
		}
	],
	"accessors":[
		{
			"bufferView":0,
			"componentType":5126,
			"count":24,
			"max":[
				0.046424686908721924,
				1,
				0.0708128809928894
			],
			"min":[
				-0.046424686908721924,
				-1,
				-0.0708128809928894
			],
			"type":"VEC3"
		},
		{
			"bufferView":1,
			"componentType":5126,
			"count":24,
			"type":"VEC3"
		},
		{
			"bufferView":2,
			"componentType":5126,
			"count":24,
			"type":"VEC2"
		},
		{
			"bufferView":3,
			"componentType":5123,
			"count":36,
			"type":"SCALAR"
		},
		{
			"bufferView":4,
			"componentType":5126,
			"count":24,
			"max":[
				0.046424686908721924,
				1,
				0.0708128809928894
			],
			"min":[
				-0.046424686908721924,
				-1,
				-0.0708128809928894
			],
			"type":"VEC3"
		},
		{
			"bufferView":5,
			"componentType":5126,
			"count":24,
			"type":"VEC3"
		},
		{
			"bufferView":6,
			"componentType":5126,
			"count":24,
			"type":"VEC2"
		},
		{
			"bufferView":7,
			"componentType":5126,
			"count":24,
			"max":[
				0.046424686908721924,
				1,
				0.0708128809928894
			],
			"min":[
				-0.046424686908721924,
				-1,
				-0.0708128809928894
			],
			"type":"VEC3"
		},
		{
			"bufferView":8,
			"componentType":5126,
			"count":24,
			"type":"VEC3"
		},
		{
			"bufferView":9,
			"componentType":5126,
			"count":24,
			"type":"VEC2"
		},
		{
			"bufferView":10,
			"componentType":5126,
			"count":24,
			"max":[
				0.046424686908721924,
				1,
				0.0708128809928894
			],
			"min":[
				-0.046424686908721924,
				-1,
				-0.0708128809928894
			],
			"type":"VEC3"
		},
		{
			"bufferView":11,
			"componentType":5126,
			"count":24,
			"type":"VEC3"
		},
		{
			"bufferView":12,
			"componentType":5126,
			"count":24,
			"type":"VEC2"
		},
		{
			"bufferView":13,
			"componentType":5126,
			"count":24,
			"max":[
				0.046424686908721924,
				1,
				0.0708128809928894
			],
			"min":[
				-0.046424686908721924,
				-1,
				-0.0708128809928894
			],
			"type":"VEC3"
		},
		{
			"bufferView":14,
			"componentType":5126,
			"count":24,
			"type":"VEC3"
		},
		{
			"bufferView":15,
			"componentType":5126,
			"count":24,
			"type":"VEC2"
		},
		{
			"bufferView":16,
			"componentType":5126,
			"count":24,
			"max":[
				0.046424686908721924,
				1,
				0.0708128809928894
			],
			"min":[
				-0.046424686908721924,
				-1,
				-0.0708128809928894
			],
			"type":"VEC3"
		},
		{
			"bufferView":17,
			"componentType":5126,
			"count":24,
			"type":"VEC3"
		},
		{
			"bufferView":18,
			"componentType":5126,
			"count":24,
			"type":"VEC2"
		},
		{
			"bufferView":19,
			"componentType":5126,
			"count":24,
			"max":[
				0.046424686908721924,
				1,
				0.0708128809928894
			],
			"min":[
				-0.046424686908721924,
				-1,
				-0.0708128809928894
			],
			"type":"VEC3"
		},
		{
			"bufferView":20,
			"componentType":5126,
			"count":24,
			"type":"VEC3"
		},
		{
			"bufferView":21,
			"componentType":5126,
			"count":24,
			"type":"VEC2"
		},
		{
			"bufferView":22,
			"componentType":5126,
			"count":24,
			"max":[
				0.046424686908721924,
				1,
				0.0708128809928894
			],
			"min":[
				-0.046424686908721924,
				-1,
				-0.0708128809928894
			],
			"type":"VEC3"
		},
		{
			"bufferView":23,
			"componentType":5126,
			"count":24,
			"type":"VEC3"
		},
		{
			"bufferView":24,
			"componentType":5126,
			"count":24,
			"type":"VEC2"
		},
		{
			"bufferView":25,
			"componentType":5126,
			"count":24,
			"max":[
				1,
				1,
				1
			],
			"min":[
				-1,
				-1,
				-1
			],
			"type":"VEC3"
		},
		{
			"bufferView":26,
			"componentType":5126,
			"count":24,
			"type":"VEC3"
		},
		{
			"bufferView":27,
			"componentType":5126,
			"count":24,
			"type":"VEC2"
		},
		{
			"bufferView":28,
			"componentType":5123,
			"count":36,
			"type":"SCALAR"
		},
		{
			"bufferView":29,
			"componentType":5126,
			"count":13,
			"type":"MAT4"
		}
	],
	"bufferViews":[
		{
			"buffer":0,
			"byteLength":288,
			"byteOffset":0,
			"target":34962
		},
		{
			"buffer":0,
			"byteLength":288,
			"byteOffset":288,
			"target":34962
		},
		{
			"buffer":0,
			"byteLength":192,
			"byteOffset":576,
			"target":34962
		},
		{
			"buffer":0,
			"byteLength":72,
			"byteOffset":768,
			"target":34963
		},
		{
			"buffer":0,
			"byteLength":288,
			"byteOffset":840,
			"target":34962
		},
		{
			"buffer":0,
			"byteLength":288,
			"byteOffset":1128,
			"target":34962
		},
		{
			"buffer":0,
			"byteLength":192,
			"byteOffset":1416,
			"target":34962
		},
		{
			"buffer":0,
			"byteLength":288,
			"byteOffset":1608,
			"target":34962
		},
		{
			"buffer":0,
			"byteLength":288,
			"byteOffset":1896,
			"target":34962
		},
		{
			"buffer":0,
			"byteLength":192,
			"byteOffset":2184,
			"target":34962
		},
		{
			"buffer":0,
			"byteLength":288,
			"byteOffset":2376,
			"target":34962
		},
		{
			"buffer":0,
			"byteLength":288,
			"byteOffset":2664,
			"target":34962
		},
		{
			"buffer":0,
			"byteLength":192,
			"byteOffset":2952,
			"target":34962
		},
		{
			"buffer":0,
			"byteLength":288,
			"byteOffset":3144,
			"target":34962
		},
		{
			"buffer":0,
			"byteLength":288,
			"byteOffset":3432,
			"target":34962
		},
		{
			"buffer":0,
			"byteLength":192,
			"byteOffset":3720,
			"target":34962
		},
		{
			"buffer":0,
			"byteLength":288,
			"byteOffset":3912,
			"target":34962
		},
		{
			"buffer":0,
			"byteLength":288,
			"byteOffset":4200,
			"target":34962
		},
		{
			"buffer":0,
			"byteLength":192,
			"byteOffset":4488,
			"target":34962
		},
		{
			"buffer":0,
			"byteLength":288,
			"byteOffset":4680,
			"target":34962
		},
		{
			"buffer":0,
			"byteLength":288,
			"byteOffset":4968,
			"target":34962
		},
		{
			"buffer":0,
			"byteLength":192,
			"byteOffset":5256,
			"target":34962
		},
		{
			"buffer":0,
			"byteLength":288,
			"byteOffset":5448,
			"target":34962
		},
		{
			"buffer":0,
			"byteLength":288,
			"byteOffset":5736,
			"target":34962
		},
		{
			"buffer":0,
			"byteLength":192,
			"byteOffset":6024,
			"target":34962
		},
		{
			"buffer":0,
			"byteLength":288,
			"byteOffset":6216,
			"target":34962
		},
		{
			"buffer":0,
			"byteLength":288,
			"byteOffset":6504,
			"target":34962
		},
		{
			"buffer":0,
			"byteLength":192,
			"byteOffset":6792,
			"target":34962
		},
		{
			"buffer":0,
			"byteLength":72,
			"byteOffset":6984,
			"target":34963
		},
		{
			"buffer":0,
			"byteLength":832,
			"byteOffset":7056
		}
	],
	"buffers":[
		{
			"byteLength":7888,
			"uri":"quadraped.bin"
		}
	]
}
